<svg width="35" height="28" viewBox="0 0 35 28" fill="none" xmlns="http://www.w3.org/2000/svg">
<path fill-rule="evenodd" clip-rule="evenodd" d="M0.625 2.95312C0.625 1.78815 1.5694 0.84375 2.73438 0.84375H32.2656C33.4306 0.84375 34.375 1.78815 34.375 2.95312C34.375 4.1181 33.4306 5.0625 32.2656 5.0625H2.73438C1.5694 5.0625 0.625 4.1181 0.625 2.95312ZM0.625 14.2031C0.625 13.0381 1.5694 12.0938 2.73438 12.0938H32.2656C33.4306 12.0938 34.375 13.0381 34.375 14.2031C34.375 15.3681 33.4306 16.3125 32.2656 16.3125H2.73438C1.5694 16.3125 0.625 15.3681 0.625 14.2031ZM0.625 25.4531C0.625 24.2881 1.5694 23.3438 2.73438 23.3438H32.2656C33.4306 23.3438 34.375 24.2881 34.375 25.4531C34.375 26.6181 33.4306 27.5625 32.2656 27.5625H2.73438C1.5694 27.5625 0.625 26.6181 0.625 25.4531Z" fill="white"/>
</svg>
